<svg width="23" height="24" viewBox="0 0 23 24" fill="none" xmlns="http://www.w3.org/2000/svg">
<g filter="url(#filter0_dd_2140_994)">
<path fill-rule="evenodd" clip-rule="evenodd" d="M8.83325 1.8335C8.61224 1.8335 8.40028 1.92129 8.244 2.07757C8.08772 2.23385 7.99992 2.44582 7.99992 2.66683V14.1668H14.9999V2.66683C14.9999 2.44582 14.9121 2.23385 14.7558 2.07757C14.5996 1.92129 14.3876 1.8335 14.1666 1.8335H8.83325ZM15.9999 5.50016V2.66683C15.9999 2.1806 15.8068 1.71428 15.4629 1.37047C15.1191 1.02665 14.6528 0.833496 14.1666 0.833496H8.83325C8.34702 0.833496 7.88071 1.02665 7.53689 1.37047C7.19307 1.71428 6.99992 2.1806 6.99992 2.66683V7.50016H6.16659C5.68035 7.50016 5.21404 7.69332 4.87022 8.03713C4.52641 8.38095 4.33325 8.84727 4.33325 9.3335V13.3335C4.33325 13.8197 4.52641 14.286 4.87022 14.6299C5.21404 14.9737 5.68035 15.1668 6.16659 15.1668H16.8333C17.3195 15.1668 17.7858 14.9737 18.1296 14.6299C18.4734 14.286 18.6666 13.8197 18.6666 13.3335V7.3335C18.6666 6.84726 18.4734 6.38095 18.1296 6.03713C17.7858 5.69332 17.3195 5.50016 16.8333 5.50016H15.9999ZM15.9999 6.50016V14.1668H16.8333C17.0543 14.1668 17.2662 14.079 17.4225 13.9228C17.5788 13.7665 17.6666 13.5545 17.6666 13.3335V7.3335C17.6666 7.11248 17.5788 6.90052 17.4225 6.74424C17.2662 6.58796 17.0543 6.50016 16.8333 6.50016H15.9999ZM6.99992 8.50016H6.16659C5.94557 8.50016 5.73361 8.58796 5.57733 8.74424C5.42105 8.90052 5.33325 9.11248 5.33325 9.3335V13.3335C5.33325 13.5545 5.42105 13.7665 5.57733 13.9228C5.73361 14.079 5.94557 14.1668 6.16659 14.1668H6.99992V8.50016ZM9.66658 4.00016C9.66658 3.72402 9.89044 3.50016 10.1666 3.50016H12.8333C13.1094 3.50016 13.3333 3.72402 13.3333 4.00016C13.3333 4.2763 13.1094 4.50016 12.8333 4.50016H10.1666C9.89044 4.50016 9.66658 4.2763 9.66658 4.00016ZM9.66658 6.66683C9.66658 6.39069 9.89044 6.16683 10.1666 6.16683H12.8333C13.1094 6.16683 13.3333 6.39069 13.3333 6.66683C13.3333 6.94297 13.1094 7.16683 12.8333 7.16683H10.1666C9.89044 7.16683 9.66658 6.94297 9.66658 6.66683ZM9.66658 9.3335C9.66658 9.05735 9.89044 8.8335 10.1666 8.8335H12.8333C13.1094 8.8335 13.3333 9.05735 13.3333 9.3335C13.3333 9.60964 13.1094 9.8335 12.8333 9.8335H10.1666C9.89044 9.8335 9.66658 9.60964 9.66658 9.3335ZM9.66658 12.0002C9.66658 11.724 9.89044 11.5002 10.1666 11.5002H12.8333C13.1094 11.5002 13.3333 11.724 13.3333 12.0002C13.3333 12.2763 13.1094 12.5002 12.8333 12.5002H10.1666C9.89044 12.5002 9.66658 12.2763 9.66658 12.0002Z" fill="#869198"/>
</g>
<defs>
<filter id="filter0_dd_2140_994" x="-0.5" y="0" width="24" height="24" filterUnits="userSpaceOnUse" color-interpolation-filters="sRGB">
<feFlood flood-opacity="0" result="BackgroundImageFix"/>
<feColorMatrix in="SourceAlpha" type="matrix" values="0 0 0 0 0 0 0 0 0 0 0 0 0 0 0 0 0 0 127 0" result="hardAlpha"/>
<feOffset dy="4"/>
<feGaussianBlur stdDeviation="2"/>
<feComposite in2="hardAlpha" operator="out"/>
<feColorMatrix type="matrix" values="0 0 0 0 0 0 0 0 0 0 0 0 0 0 0 0 0 0 0.25 0"/>
<feBlend mode="normal" in2="BackgroundImageFix" result="effect1_dropShadow_2140_994"/>
<feColorMatrix in="SourceAlpha" type="matrix" values="0 0 0 0 0 0 0 0 0 0 0 0 0 0 0 0 0 0 127 0" result="hardAlpha"/>
<feOffset dy="4"/>
<feGaussianBlur stdDeviation="2"/>
<feComposite in2="hardAlpha" operator="out"/>
<feColorMatrix type="matrix" values="0 0 0 0 0 0 0 0 0 0 0 0 0 0 0 0 0 0 0.25 0"/>
<feBlend mode="normal" in2="effect1_dropShadow_2140_994" result="effect2_dropShadow_2140_994"/>
<feBlend mode="normal" in="SourceGraphic" in2="effect2_dropShadow_2140_994" result="shape"/>
</filter>
</defs>
</svg>
