<svg width="24" height="24" viewBox="0 0 24 24" fill="none" xmlns="http://www.w3.org/2000/svg">
<g clip-path="url(#clip0_2140_1005)" filter="url(#filter0_dd_2140_1005)">
<path fill-rule="evenodd" clip-rule="evenodd" d="M9.33325 1.8335C9.11224 1.8335 8.90028 1.92129 8.744 2.07757C8.58772 2.23385 8.49992 2.44582 8.49992 2.66683V14.1668H15.4999V2.66683C15.4999 2.44582 15.4121 2.23385 15.2558 2.07757C15.0996 1.92129 14.8876 1.8335 14.6666 1.8335H9.33325ZM16.4999 5.50016V2.66683C16.4999 2.1806 16.3068 1.71428 15.9629 1.37047C15.6191 1.02665 15.1528 0.833496 14.6666 0.833496H9.33325C8.84702 0.833496 8.38071 1.02665 8.03689 1.37047C7.69307 1.71428 7.49992 2.1806 7.49992 2.66683V7.50016H6.66659C6.18035 7.50016 5.71404 7.69332 5.37022 8.03713C5.02641 8.38095 4.83325 8.84727 4.83325 9.3335V13.3335C4.83325 13.8197 5.02641 14.286 5.37022 14.6299C5.71404 14.9737 6.18035 15.1668 6.66659 15.1668H17.3333C17.8195 15.1668 18.2858 14.9737 18.6296 14.6299C18.9734 14.286 19.1666 13.8197 19.1666 13.3335V7.3335C19.1666 6.84726 18.9734 6.38095 18.6296 6.03713C18.2858 5.69332 17.8195 5.50016 17.3333 5.50016H16.4999ZM16.4999 6.50016V14.1668H17.3333C17.5543 14.1668 17.7662 14.079 17.9225 13.9228C18.0788 13.7665 18.1666 13.5545 18.1666 13.3335V7.3335C18.1666 7.11248 18.0788 6.90052 17.9225 6.74424C17.7662 6.58796 17.5543 6.50016 17.3333 6.50016H16.4999ZM7.49992 8.50016H6.66659C6.44557 8.50016 6.23361 8.58796 6.07733 8.74424C5.92105 8.90052 5.83325 9.11248 5.83325 9.3335V13.3335C5.83325 13.5545 5.92105 13.7665 6.07733 13.9228C6.23361 14.079 6.44557 14.1668 6.66659 14.1668H7.49992V8.50016ZM10.1666 4.00016C10.1666 3.72402 10.3904 3.50016 10.6666 3.50016H13.3333C13.6094 3.50016 13.8333 3.72402 13.8333 4.00016C13.8333 4.2763 13.6094 4.50016 13.3333 4.50016H10.6666C10.3904 4.50016 10.1666 4.2763 10.1666 4.00016ZM10.1666 6.66683C10.1666 6.39069 10.3904 6.16683 10.6666 6.16683H13.3333C13.6094 6.16683 13.8333 6.39069 13.8333 6.66683C13.8333 6.94297 13.6094 7.16683 13.3333 7.16683H10.6666C10.3904 7.16683 10.1666 6.94297 10.1666 6.66683ZM10.1666 9.3335C10.1666 9.05735 10.3904 8.8335 10.6666 8.8335H13.3333C13.6094 8.8335 13.8333 9.05735 13.8333 9.3335C13.8333 9.60964 13.6094 9.8335 13.3333 9.8335H10.6666C10.3904 9.8335 10.1666 9.60964 10.1666 9.3335ZM10.1666 12.0002C10.1666 11.724 10.3904 11.5002 10.6666 11.5002H13.3333C13.6094 11.5002 13.8333 11.724 13.8333 12.0002C13.8333 12.2763 13.6094 12.5002 13.3333 12.5002H10.6666C10.3904 12.5002 10.1666 12.2763 10.1666 12.0002Z" fill="#59B2FF"/>
</g>
<defs>
<filter id="filter0_dd_2140_1005" x="0" y="0" width="24" height="24" filterUnits="userSpaceOnUse" color-interpolation-filters="sRGB">
<feFlood flood-opacity="0" result="BackgroundImageFix"/>
<feColorMatrix in="SourceAlpha" type="matrix" values="0 0 0 0 0 0 0 0 0 0 0 0 0 0 0 0 0 0 127 0" result="hardAlpha"/>
<feOffset dy="4"/>
<feGaussianBlur stdDeviation="2"/>
<feComposite in2="hardAlpha" operator="out"/>
<feColorMatrix type="matrix" values="0 0 0 0 0 0 0 0 0 0 0 0 0 0 0 0 0 0 0.25 0"/>
<feBlend mode="normal" in2="BackgroundImageFix" result="effect1_dropShadow_2140_1005"/>
<feColorMatrix in="SourceAlpha" type="matrix" values="0 0 0 0 0 0 0 0 0 0 0 0 0 0 0 0 0 0 127 0" result="hardAlpha"/>
<feOffset dy="4"/>
<feGaussianBlur stdDeviation="2"/>
<feComposite in2="hardAlpha" operator="out"/>
<feColorMatrix type="matrix" values="0 0 0 0 0 0 0 0 0 0 0 0 0 0 0 0 0 0 0.25 0"/>
<feBlend mode="normal" in2="effect1_dropShadow_2140_1005" result="effect2_dropShadow_2140_1005"/>
<feBlend mode="normal" in="SourceGraphic" in2="effect2_dropShadow_2140_1005" result="shape"/>
</filter>
<clipPath id="clip0_2140_1005">
<rect width="16" height="16" fill="white" transform="translate(4)"/>
</clipPath>
</defs>
</svg>
