<svg width="38" height="39" viewBox="0 0 38 39" fill="none" xmlns="http://www.w3.org/2000/svg">
<g filter="url(#filter0_dd_2122_989)">
<path fill-rule="evenodd" clip-rule="evenodd" d="M13.6666 3.66675C13.2246 3.66675 12.8007 3.84234 12.4881 4.1549C12.1756 4.46746 12 4.89139 12 5.33341V28.3334H26V5.33341C26 4.89139 25.8244 4.46746 25.5118 4.1549C25.1992 3.84234 24.7753 3.66675 24.3333 3.66675H13.6666ZM28 11.0001V5.33341C28 4.36095 27.6136 3.42832 26.926 2.74069C26.2384 2.05306 25.3058 1.66675 24.3333 1.66675H13.6666C12.6942 1.66675 11.7615 2.05306 11.0739 2.74069C10.3863 3.42832 9.99996 4.36095 9.99996 5.33341V15.0001H8.33329C7.36083 15.0001 6.4282 15.3864 5.74057 16.074C5.05293 16.7617 4.66663 17.6943 4.66663 18.6667V26.6667C4.66663 27.6392 5.05293 28.5718 5.74057 29.2595C6.4282 29.9471 7.36083 30.3334 8.33329 30.3334H29.6666C30.6391 30.3334 31.5717 29.9471 32.2593 29.2595C32.947 28.5718 33.3333 27.6392 33.3333 26.6667V14.6667C33.3333 13.6943 32.947 12.7617 32.2593 12.074C31.5717 11.3864 30.6391 11.0001 29.6666 11.0001H28ZM28 13.0001V28.3334H29.6666C30.1087 28.3334 30.5326 28.1578 30.8451 27.8453C31.1577 27.5327 31.3333 27.1088 31.3333 26.6667V14.6667C31.3333 14.2247 31.1577 13.8008 30.8451 13.4882C30.5326 13.1757 30.1087 13.0001 29.6666 13.0001H28ZM9.99996 17.0001H8.33329C7.89127 17.0001 7.46734 17.1757 7.15478 17.4882C6.84222 17.8008 6.66663 18.2247 6.66663 18.6667V26.6667C6.66663 27.1088 6.84222 27.5327 7.15478 27.8453C7.46734 28.1578 7.89127 28.3334 8.33329 28.3334H9.99996V17.0001ZM15.3333 8.00008C15.3333 7.4478 15.781 7.00008 16.3333 7.00008H21.6666C22.2189 7.00008 22.6666 7.4478 22.6666 8.00008C22.6666 8.55237 22.2189 9.00008 21.6666 9.00008H16.3333C15.781 9.00008 15.3333 8.55237 15.3333 8.00008ZM15.3333 13.3334C15.3333 12.7811 15.781 12.3334 16.3333 12.3334H21.6666C22.2189 12.3334 22.6666 12.7811 22.6666 13.3334C22.6666 13.8857 22.2189 14.3334 21.6666 14.3334H16.3333C15.781 14.3334 15.3333 13.8857 15.3333 13.3334ZM15.3333 18.6667C15.3333 18.1145 15.781 17.6667 16.3333 17.6667H21.6666C22.2189 17.6667 22.6666 18.1145 22.6666 18.6667C22.6666 19.219 22.2189 19.6667 21.6666 19.6667H16.3333C15.781 19.6667 15.3333 19.219 15.3333 18.6667ZM15.3333 24.0001C15.3333 23.4478 15.781 23.0001 16.3333 23.0001H21.6666C22.2189 23.0001 22.6666 23.4478 22.6666 24.0001C22.6666 24.5524 22.2189 25.0001 21.6666 25.0001H16.3333C15.781 25.0001 15.3333 24.5524 15.3333 24.0001Z" fill="white"/>
</g>
<defs>
<filter id="filter0_dd_2122_989" x="-1" y="0" width="40" height="40" filterUnits="userSpaceOnUse" color-interpolation-filters="sRGB">
<feFlood flood-opacity="0" result="BackgroundImageFix"/>
<feColorMatrix in="SourceAlpha" type="matrix" values="0 0 0 0 0 0 0 0 0 0 0 0 0 0 0 0 0 0 127 0" result="hardAlpha"/>
<feOffset dy="4"/>
<feGaussianBlur stdDeviation="2"/>
<feComposite in2="hardAlpha" operator="out"/>
<feColorMatrix type="matrix" values="0 0 0 0 0 0 0 0 0 0 0 0 0 0 0 0 0 0 0.25 0"/>
<feBlend mode="normal" in2="BackgroundImageFix" result="effect1_dropShadow_2122_989"/>
<feColorMatrix in="SourceAlpha" type="matrix" values="0 0 0 0 0 0 0 0 0 0 0 0 0 0 0 0 0 0 127 0" result="hardAlpha"/>
<feOffset dy="4"/>
<feGaussianBlur stdDeviation="2"/>
<feComposite in2="hardAlpha" operator="out"/>
<feColorMatrix type="matrix" values="0 0 0 0 0 0 0 0 0 0 0 0 0 0 0 0 0 0 0.25 0"/>
<feBlend mode="normal" in2="effect1_dropShadow_2122_989" result="effect2_dropShadow_2122_989"/>
<feBlend mode="normal" in="SourceGraphic" in2="effect2_dropShadow_2122_989" result="shape"/>
</filter>
</defs>
</svg>
