<svg width="24" height="24" viewBox="0 0 24 24" fill="none" xmlns="http://www.w3.org/2000/svg">
<g clip-path="url(#clip0_4218_256)" filter="url(#filter0_dd_4218_256)">
<path fill-rule="evenodd" clip-rule="evenodd" d="M12 1.83337C8.59428 1.83337 5.83337 4.59428 5.83337 8.00004C5.83337 11.4058 8.59428 14.1667 12 14.1667C15.4058 14.1667 18.1667 11.4058 18.1667 8.00004C18.1667 4.59428 15.4058 1.83337 12 1.83337ZM4.83337 8.00004C4.83337 4.042 8.042 0.833374 12 0.833374C15.9581 0.833374 19.1667 4.042 19.1667 8.00004C19.1667 11.9581 15.9581 15.1667 12 15.1667C8.042 15.1667 4.83337 11.9581 4.83337 8.00004ZM12 4.83337C12.2762 4.83337 12.5 5.05723 12.5 5.33337V8.00004C12.5 8.27618 12.2762 8.50004 12 8.50004C11.7239 8.50004 11.5 8.27618 11.5 8.00004V5.33337C11.5 5.05723 11.7239 4.83337 12 4.83337ZM11.5 10.6667C11.5 10.3906 11.7239 10.1667 12 10.1667H12.0067C12.2828 10.1667 12.5067 10.3906 12.5067 10.6667C12.5067 10.9428 12.2828 11.1667 12.0067 11.1667H12C11.7239 11.1667 11.5 10.9428 11.5 10.6667Z" fill="#FF5959"/>
</g>
<defs>
<filter id="filter0_dd_4218_256" x="0" y="0" width="24" height="24" filterUnits="userSpaceOnUse" color-interpolation-filters="sRGB">
<feFlood flood-opacity="0" result="BackgroundImageFix"/>
<feColorMatrix in="SourceAlpha" type="matrix" values="0 0 0 0 0 0 0 0 0 0 0 0 0 0 0 0 0 0 127 0" result="hardAlpha"/>
<feOffset dy="4"/>
<feGaussianBlur stdDeviation="2"/>
<feComposite in2="hardAlpha" operator="out"/>
<feColorMatrix type="matrix" values="0 0 0 0 0 0 0 0 0 0 0 0 0 0 0 0 0 0 0.25 0"/>
<feBlend mode="normal" in2="BackgroundImageFix" result="effect1_dropShadow_4218_256"/>
<feColorMatrix in="SourceAlpha" type="matrix" values="0 0 0 0 0 0 0 0 0 0 0 0 0 0 0 0 0 0 127 0" result="hardAlpha"/>
<feOffset dy="4"/>
<feGaussianBlur stdDeviation="2"/>
<feComposite in2="hardAlpha" operator="out"/>
<feColorMatrix type="matrix" values="0 0 0 0 0 0 0 0 0 0 0 0 0 0 0 0 0 0 0.25 0"/>
<feBlend mode="normal" in2="effect1_dropShadow_4218_256" result="effect2_dropShadow_4218_256"/>
<feBlend mode="normal" in="SourceGraphic" in2="effect2_dropShadow_4218_256" result="shape"/>
</filter>
<clipPath id="clip0_4218_256">
<rect width="16" height="16" fill="white" transform="translate(4)"/>
</clipPath>
</defs>
</svg>
