<svg width="38" height="39" viewBox="0 0 38 39" fill="none" xmlns="http://www.w3.org/2000/svg">
<g filter="url(#filter0_dd_2129_1651)">
<path fill-rule="evenodd" clip-rule="evenodd" d="M19 3.66675C12.1885 3.66675 6.66669 9.18857 6.66669 16.0001C6.66669 22.8116 12.1885 28.3334 19 28.3334C25.8115 28.3334 31.3333 22.8116 31.3333 16.0001C31.3333 9.18857 25.8115 3.66675 19 3.66675ZM4.66669 16.0001C4.66669 8.084 11.0839 1.66675 19 1.66675C26.9161 1.66675 33.3333 8.084 33.3333 16.0001C33.3333 23.9162 26.9161 30.3334 19 30.3334C11.0839 30.3334 4.66669 23.9162 4.66669 16.0001ZM19 9.66675C19.5523 9.66675 20 10.1145 20 10.6667V16.0001C20 16.5524 19.5523 17.0001 19 17.0001C18.4477 17.0001 18 16.5524 18 16.0001V10.6667C18 10.1145 18.4477 9.66675 19 9.66675ZM18 21.3334C18 20.7811 18.4477 20.3334 19 20.3334H19.0134C19.5656 20.3334 20.0134 20.7811 20.0134 21.3334C20.0134 21.8857 19.5656 22.3334 19.0134 22.3334H19C18.4477 22.3334 18 21.8857 18 21.3334Z" fill="white"/>
</g>
<defs>
<filter id="filter0_dd_2129_1651" x="-1" y="0" width="40" height="40" filterUnits="userSpaceOnUse" color-interpolation-filters="sRGB">
<feFlood flood-opacity="0" result="BackgroundImageFix"/>
<feColorMatrix in="SourceAlpha" type="matrix" values="0 0 0 0 0 0 0 0 0 0 0 0 0 0 0 0 0 0 127 0" result="hardAlpha"/>
<feOffset dy="4"/>
<feGaussianBlur stdDeviation="2"/>
<feComposite in2="hardAlpha" operator="out"/>
<feColorMatrix type="matrix" values="0 0 0 0 0 0 0 0 0 0 0 0 0 0 0 0 0 0 0.25 0"/>
<feBlend mode="normal" in2="BackgroundImageFix" result="effect1_dropShadow_2129_1651"/>
<feColorMatrix in="SourceAlpha" type="matrix" values="0 0 0 0 0 0 0 0 0 0 0 0 0 0 0 0 0 0 127 0" result="hardAlpha"/>
<feOffset dy="4"/>
<feGaussianBlur stdDeviation="2"/>
<feComposite in2="hardAlpha" operator="out"/>
<feColorMatrix type="matrix" values="0 0 0 0 0 0 0 0 0 0 0 0 0 0 0 0 0 0 0.25 0"/>
<feBlend mode="normal" in2="effect1_dropShadow_2129_1651" result="effect2_dropShadow_2129_1651"/>
<feBlend mode="normal" in="SourceGraphic" in2="effect2_dropShadow_2129_1651" result="shape"/>
</filter>
</defs>
</svg>
