<svg width="34" height="39" viewBox="0 0 34 39" fill="none" xmlns="http://www.w3.org/2000/svg">
<g filter="url(#filter0_dd_2143_1217)">
<path fill-rule="evenodd" clip-rule="evenodd" d="M11.6667 1.66675C12.219 1.66675 12.6667 2.11446 12.6667 2.66675V4.33341H21.3333V2.66675C21.3333 2.11446 21.781 1.66675 22.3333 1.66675C22.8856 1.66675 23.3333 2.11446 23.3333 2.66675V4.33341H26.3333C28.3584 4.33341 30 5.97504 30 8.00008V26.6667C30 28.6918 28.3584 30.3334 26.3333 30.3334H7.66667C5.64162 30.3334 4 28.6918 4 26.6667V8.00008C4 5.97504 5.64162 4.33341 7.66667 4.33341H10.6667V2.66675C10.6667 2.11446 11.1144 1.66675 11.6667 1.66675ZM7.66667 6.33341C6.74619 6.33341 6 7.07961 6 8.00008V26.6667C6 27.5872 6.74619 28.3334 7.66667 28.3334H26.3333C27.2538 28.3334 28 27.5872 28 26.6667V8.00008C28 7.07961 27.2538 6.33341 26.3333 6.33341H7.66667ZM17 11.6667C16.0795 11.6667 15.3333 12.4129 15.3333 13.3334C15.3333 14.2539 16.0795 15.0001 17 15.0001C17.9205 15.0001 18.6667 14.2539 18.6667 13.3334C18.6667 12.4129 17.9205 11.6667 17 11.6667ZM13.3333 13.3334C13.3333 11.3084 14.975 9.66675 17 9.66675C19.025 9.66675 20.6667 11.3084 20.6667 13.3334C20.6667 15.3585 19.025 17.0001 17 17.0001C14.975 17.0001 13.3333 15.3585 13.3333 13.3334ZM10.4073 21.4074C11.0949 20.7197 12.0275 20.3334 13 20.3334H21C21.9725 20.3334 22.9051 20.7197 23.5927 21.4074C24.2804 22.095 24.6667 23.0276 24.6667 24.0001C24.6667 24.5524 24.219 25.0001 23.6667 25.0001C23.1144 25.0001 22.6667 24.5524 22.6667 24.0001C22.6667 23.5581 22.4911 23.1341 22.1785 22.8216C21.866 22.509 21.442 22.3334 21 22.3334H13C12.558 22.3334 12.1341 22.509 11.8215 22.8216C11.5089 23.1341 11.3333 23.5581 11.3333 24.0001C11.3333 24.5524 10.8856 25.0001 10.3333 25.0001C9.78105 25.0001 9.33333 24.5524 9.33333 24.0001C9.33333 23.0276 9.71964 22.095 10.4073 21.4074Z" fill="white"/>
</g>
<defs>
<filter id="filter0_dd_2143_1217" x="-3" y="0" width="40" height="40" filterUnits="userSpaceOnUse" color-interpolation-filters="sRGB">
<feFlood flood-opacity="0" result="BackgroundImageFix"/>
<feColorMatrix in="SourceAlpha" type="matrix" values="0 0 0 0 0 0 0 0 0 0 0 0 0 0 0 0 0 0 127 0" result="hardAlpha"/>
<feOffset dy="4"/>
<feGaussianBlur stdDeviation="2"/>
<feComposite in2="hardAlpha" operator="out"/>
<feColorMatrix type="matrix" values="0 0 0 0 0 0 0 0 0 0 0 0 0 0 0 0 0 0 0.25 0"/>
<feBlend mode="normal" in2="BackgroundImageFix" result="effect1_dropShadow_2143_1217"/>
<feColorMatrix in="SourceAlpha" type="matrix" values="0 0 0 0 0 0 0 0 0 0 0 0 0 0 0 0 0 0 127 0" result="hardAlpha"/>
<feOffset dy="4"/>
<feGaussianBlur stdDeviation="2"/>
<feComposite in2="hardAlpha" operator="out"/>
<feColorMatrix type="matrix" values="0 0 0 0 0 0 0 0 0 0 0 0 0 0 0 0 0 0 0.25 0"/>
<feBlend mode="normal" in2="effect1_dropShadow_2143_1217" result="effect2_dropShadow_2143_1217"/>
<feBlend mode="normal" in="SourceGraphic" in2="effect2_dropShadow_2143_1217" result="shape"/>
</filter>
</defs>
</svg>
