<svg width="26" height="25" viewBox="0 0 26 25" fill="none" xmlns="http://www.w3.org/2000/svg">
<g filter="url(#filter0_dd_4208_9)">
<path fill-rule="evenodd" clip-rule="evenodd" d="M4.71284 4.21284C5.14261 3.78307 5.7255 3.54163 6.33329 3.54163H19.6666C20.2744 3.54163 20.8573 3.78307 21.2871 4.21284C21.7168 4.64261 21.9583 5.2255 21.9583 5.83329V7.49996C21.9583 7.84514 21.6785 8.12496 21.3333 8.12496C20.836 8.12496 20.3591 8.3225 20.0075 8.67413C19.6558 9.02576 19.4583 9.50268 19.4583 9.99996C19.4583 10.4972 19.6558 10.9742 20.0075 11.3258C20.3591 11.6774 20.836 11.875 21.3333 11.875C21.6785 11.875 21.9583 12.1548 21.9583 12.5V14.1666C21.9583 14.7744 21.7168 15.3573 21.2871 15.7871C20.8573 16.2168 20.2744 16.4583 19.6666 16.4583H6.33329C5.7255 16.4583 5.14261 16.2168 4.71284 15.7871C4.28307 15.3573 4.04163 14.7744 4.04163 14.1666V12.5C4.04163 12.1548 4.32145 11.875 4.66663 11.875C5.16391 11.875 5.64082 11.6774 5.99245 11.3258C6.34408 10.9742 6.54163 10.4972 6.54163 9.99996C6.54163 9.50268 6.34408 9.02576 5.99245 8.67413C5.64082 8.3225 5.16391 8.12496 4.66663 8.12496C4.32145 8.12496 4.04163 7.84514 4.04163 7.49996V5.83329C4.04163 5.2255 4.28307 4.64261 4.71284 4.21284ZM14.4583 15.2083V14.1666C14.4583 13.8214 14.1785 13.5416 13.8333 13.5416C13.4881 13.5416 13.2083 13.8214 13.2083 14.1666V15.2083H6.33329C6.05703 15.2083 5.79207 15.0985 5.59672 14.9032C5.40137 14.7078 5.29163 14.4429 5.29163 14.1666V13.0618C5.88753 12.9402 6.43985 12.6462 6.87633 12.2097C7.46239 11.6236 7.79163 10.8288 7.79163 9.99996C7.79163 9.17116 7.46239 8.3763 6.87633 7.79025C6.43985 7.35376 5.88753 7.05973 5.29163 6.93808V5.83329C5.29163 5.55703 5.40137 5.29207 5.59672 5.09672C5.79207 4.90137 6.05703 4.79163 6.33329 4.79163H13.2083V5.83329C13.2083 6.17847 13.4881 6.45829 13.8333 6.45829C14.1785 6.45829 14.4583 6.17847 14.4583 5.83329V4.79163H19.6666C19.9429 4.79163 20.2078 4.90137 20.4032 5.09672C20.5985 5.29207 20.7083 5.55703 20.7083 5.83329V6.93808C20.1124 7.05973 19.5601 7.35376 19.1236 7.79025C18.5375 8.3763 18.2083 9.17116 18.2083 9.99996C18.2083 10.8288 18.5375 11.6236 19.1236 12.2097C19.5601 12.6462 20.1124 12.9402 20.7083 13.0618V14.1666C20.7083 14.4429 20.5985 14.7078 20.4032 14.9032C20.2078 15.0985 19.9429 15.2083 19.6666 15.2083H14.4583ZM13.8333 8.54163C14.1785 8.54163 14.4583 8.82145 14.4583 9.16663V10.8333C14.4583 11.1785 14.1785 11.4583 13.8333 11.4583C13.4881 11.4583 13.2083 11.1785 13.2083 10.8333V9.16663C13.2083 8.82145 13.4881 8.54163 13.8333 8.54163Z" fill="white"/>
</g>
<defs>
<filter id="filter0_dd_4208_9" x="-1" y="0" width="28" height="28" filterUnits="userSpaceOnUse" color-interpolation-filters="sRGB">
<feFlood flood-opacity="0" result="BackgroundImageFix"/>
<feColorMatrix in="SourceAlpha" type="matrix" values="0 0 0 0 0 0 0 0 0 0 0 0 0 0 0 0 0 0 127 0" result="hardAlpha"/>
<feOffset dy="4"/>
<feGaussianBlur stdDeviation="2"/>
<feComposite in2="hardAlpha" operator="out"/>
<feColorMatrix type="matrix" values="0 0 0 0 0 0 0 0 0 0 0 0 0 0 0 0 0 0 0.25 0"/>
<feBlend mode="normal" in2="BackgroundImageFix" result="effect1_dropShadow_4208_9"/>
<feColorMatrix in="SourceAlpha" type="matrix" values="0 0 0 0 0 0 0 0 0 0 0 0 0 0 0 0 0 0 127 0" result="hardAlpha"/>
<feOffset dy="4"/>
<feGaussianBlur stdDeviation="2"/>
<feComposite in2="hardAlpha" operator="out"/>
<feColorMatrix type="matrix" values="0 0 0 0 0 0 0 0 0 0 0 0 0 0 0 0 0 0 0.25 0"/>
<feBlend mode="normal" in2="effect1_dropShadow_4208_9" result="effect2_dropShadow_4208_9"/>
<feBlend mode="normal" in="SourceGraphic" in2="effect2_dropShadow_4208_9" result="shape"/>
</filter>
</defs>
</svg>
