<svg width="38" height="35" viewBox="0 0 38 35" fill="none" xmlns="http://www.w3.org/2000/svg">
<g filter="url(#filter0_dd_2122_668)">
<path fill-rule="evenodd" clip-rule="evenodd" d="M5.74063 6.74069C6.42826 6.05306 7.36089 5.66675 8.33335 5.66675H29.6667C30.6391 5.66675 31.5718 6.05306 32.2594 6.74069C32.947 7.42832 33.3334 8.36095 33.3334 9.33341V12.0001C33.3334 12.5524 32.8856 13.0001 32.3334 13.0001C31.5377 13.0001 30.7746 13.3162 30.212 13.8788C29.6494 14.4414 29.3334 15.2044 29.3334 16.0001C29.3334 16.7957 29.6494 17.5588 30.212 18.1214C30.7746 18.684 31.5377 19.0001 32.3334 19.0001C32.8856 19.0001 33.3334 19.4478 33.3334 20.0001V22.6667C33.3334 23.6392 32.947 24.5718 32.2594 25.2595C31.5718 25.9471 30.6391 26.3334 29.6667 26.3334H8.33335C7.36089 26.3334 6.42826 25.9471 5.74063 25.2595C5.053 24.5718 4.66669 23.6392 4.66669 22.6667V20.0001C4.66669 19.4478 5.1144 19.0001 5.66669 19.0001C6.46234 19.0001 7.2254 18.684 7.78801 18.1214C8.35062 17.5588 8.66669 16.7957 8.66669 16.0001C8.66669 15.2044 8.35062 14.4414 7.78801 13.8788C7.2254 13.3162 6.46234 13.0001 5.66669 13.0001C5.1144 13.0001 4.66669 12.5524 4.66669 12.0001V9.33341C4.66669 8.36095 5.053 7.42832 5.74063 6.74069ZM21.3334 24.3334V22.6667C21.3334 22.1145 20.8856 21.6667 20.3334 21.6667C19.7811 21.6667 19.3334 22.1145 19.3334 22.6667V24.3334H8.33335C7.89133 24.3334 7.4674 24.1578 7.15484 23.8453C6.84228 23.5327 6.66669 23.1088 6.66669 22.6667V20.8991C7.62013 20.7044 8.50384 20.234 9.20222 19.5356C10.1399 18.5979 10.6667 17.3262 10.6667 16.0001C10.6667 14.674 10.1399 13.4022 9.20222 12.4645C8.50384 11.7662 7.62013 11.2957 6.66669 11.1011V9.33341C6.66669 8.89139 6.84228 8.46746 7.15484 8.1549C7.4674 7.84234 7.89133 7.66675 8.33335 7.66675H19.3334V9.33341C19.3334 9.8857 19.7811 10.3334 20.3334 10.3334C20.8856 10.3334 21.3334 9.8857 21.3334 9.33341V7.66675H29.6667C30.1087 7.66675 30.5326 7.84234 30.8452 8.1549C31.1578 8.46746 31.3334 8.89139 31.3334 9.33341V11.1011C30.3799 11.2957 29.4962 11.7662 28.7978 12.4645C27.8601 13.4022 27.3334 14.674 27.3334 16.0001C27.3334 17.3262 27.8601 18.5979 28.7978 19.5356C29.4962 20.234 30.3799 20.7044 31.3334 20.8991V22.6667C31.3334 23.1088 31.1578 23.5327 30.8452 23.8453C30.5326 24.1578 30.1087 24.3334 29.6667 24.3334H21.3334ZM20.3334 13.6667C20.8856 13.6667 21.3334 14.1145 21.3334 14.6667V17.3334C21.3334 17.8857 20.8856 18.3334 20.3334 18.3334C19.7811 18.3334 19.3334 17.8857 19.3334 17.3334V14.6667C19.3334 14.1145 19.7811 13.6667 20.3334 13.6667Z" fill="white"/>
</g>
<defs>
<filter id="filter0_dd_2122_668" x="-1" y="0" width="40" height="40" filterUnits="userSpaceOnUse" color-interpolation-filters="sRGB">
<feFlood flood-opacity="0" result="BackgroundImageFix"/>
<feColorMatrix in="SourceAlpha" type="matrix" values="0 0 0 0 0 0 0 0 0 0 0 0 0 0 0 0 0 0 127 0" result="hardAlpha"/>
<feOffset dy="4"/>
<feGaussianBlur stdDeviation="2"/>
<feComposite in2="hardAlpha" operator="out"/>
<feColorMatrix type="matrix" values="0 0 0 0 0 0 0 0 0 0 0 0 0 0 0 0 0 0 0.25 0"/>
<feBlend mode="normal" in2="BackgroundImageFix" result="effect1_dropShadow_2122_668"/>
<feColorMatrix in="SourceAlpha" type="matrix" values="0 0 0 0 0 0 0 0 0 0 0 0 0 0 0 0 0 0 127 0" result="hardAlpha"/>
<feOffset dy="4"/>
<feGaussianBlur stdDeviation="2"/>
<feComposite in2="hardAlpha" operator="out"/>
<feColorMatrix type="matrix" values="0 0 0 0 0 0 0 0 0 0 0 0 0 0 0 0 0 0 0.25 0"/>
<feBlend mode="normal" in2="effect1_dropShadow_2122_668" result="effect2_dropShadow_2122_668"/>
<feBlend mode="normal" in="SourceGraphic" in2="effect2_dropShadow_2122_668" result="shape"/>
</filter>
</defs>
</svg>
