<svg width="22" height="23" viewBox="0 0 22 23" fill="none" xmlns="http://www.w3.org/2000/svg">
<g filter="url(#filter0_dd_4180_295)">
<path fill-rule="evenodd" clip-rule="evenodd" d="M10.6464 1.64645C10.8417 1.45118 11.1583 1.45118 11.3536 1.64645L14.6869 4.97978C14.8821 5.17504 14.8821 5.49162 14.6869 5.68689C14.4916 5.88215 14.175 5.88215 13.9798 5.68689L11.5 3.20711V10C11.5 10.2761 11.2761 10.5 11 10.5C10.7239 10.5 10.5 10.2761 10.5 10V3.20711L8.02022 5.68689C7.82496 5.88215 7.50838 5.88215 7.31311 5.68689C7.11785 5.49162 7.11785 5.17504 7.31311 4.97978L10.6464 1.64645ZM5 9.5C5.27614 9.5 5.5 9.72386 5.5 10V12.6667C5.5 12.8877 5.5878 13.0996 5.74408 13.2559C5.90036 13.4122 6.11232 13.5 6.33333 13.5H15.6667C15.8877 13.5 16.0996 13.4122 16.2559 13.2559C16.4122 13.0996 16.5 12.8877 16.5 12.6667V10C16.5 9.72386 16.7239 9.5 17 9.5C17.2761 9.5 17.5 9.72386 17.5 10V12.6667C17.5 13.1529 17.3068 13.6192 16.963 13.963C16.6192 14.3068 16.1529 14.5 15.6667 14.5H6.33333C5.8471 14.5 5.38079 14.3068 5.03697 13.963C4.69315 13.6192 4.5 13.1529 4.5 12.6667V10C4.5 9.72386 4.72386 9.5 5 9.5Z" fill="#59B2FF"/>
</g>
<defs>
<filter id="filter0_dd_4180_295" x="-1" y="0" width="24" height="24" filterUnits="userSpaceOnUse" color-interpolation-filters="sRGB">
<feFlood flood-opacity="0" result="BackgroundImageFix"/>
<feColorMatrix in="SourceAlpha" type="matrix" values="0 0 0 0 0 0 0 0 0 0 0 0 0 0 0 0 0 0 127 0" result="hardAlpha"/>
<feOffset dy="4"/>
<feGaussianBlur stdDeviation="2"/>
<feComposite in2="hardAlpha" operator="out"/>
<feColorMatrix type="matrix" values="0 0 0 0 0 0 0 0 0 0 0 0 0 0 0 0 0 0 0.25 0"/>
<feBlend mode="normal" in2="BackgroundImageFix" result="effect1_dropShadow_4180_295"/>
<feColorMatrix in="SourceAlpha" type="matrix" values="0 0 0 0 0 0 0 0 0 0 0 0 0 0 0 0 0 0 127 0" result="hardAlpha"/>
<feOffset dy="4"/>
<feGaussianBlur stdDeviation="2"/>
<feComposite in2="hardAlpha" operator="out"/>
<feColorMatrix type="matrix" values="0 0 0 0 0 0 0 0 0 0 0 0 0 0 0 0 0 0 0.25 0"/>
<feBlend mode="normal" in2="effect1_dropShadow_4180_295" result="effect2_dropShadow_4180_295"/>
<feBlend mode="normal" in="SourceGraphic" in2="effect2_dropShadow_4180_295" result="shape"/>
</filter>
</defs>
</svg>
