<svg width="24" height="21" viewBox="0 0 24 21" fill="none" xmlns="http://www.w3.org/2000/svg">
<g filter="url(#filter0_dd_4144_34)">
<path fill-rule="evenodd" clip-rule="evenodd" d="M6.66671 4.5C6.20647 4.5 5.83337 4.8731 5.83337 5.33333V10.6667C5.83337 11.1269 6.20647 11.5 6.66671 11.5H13.3334C13.7936 11.5 14.1667 11.1269 14.1667 10.6667V8.6735C14.1666 8.66864 14.1666 8.66378 14.1667 8.65892V7.00949C14.1666 7.00347 14.1666 6.99746 14.1667 6.99145V5.33333C14.1667 4.8731 13.7936 4.5 13.3334 4.5H6.66671ZM15.1667 6.12939V5.33333C15.1667 4.32081 14.3459 3.5 13.3334 3.5H6.66671C5.65419 3.5 4.83337 4.32081 4.83337 5.33333V10.6667C4.83337 11.6792 5.65419 12.5 6.66671 12.5H13.3334C14.3459 12.5 15.1667 11.6792 15.1667 10.6667V9.60093L17.8717 11.4043C17.9972 11.4878 18.143 11.5357 18.2936 11.5429C18.4441 11.5501 18.5938 11.5163 18.7267 11.4452C18.8596 11.374 18.9707 11.2682 19.0482 11.1389C19.1257 11.0096 19.1666 10.8617 19.1667 10.7109V5.24681C19.1667 5.24677 19.1667 5.24686 19.1667 5.24681C19.1667 5.10024 19.1281 4.9561 19.0547 4.82923C18.9812 4.70231 18.8756 4.59702 18.7485 4.52398C18.6213 4.45094 18.4772 4.41274 18.3305 4.41324C18.1839 4.41374 18.04 4.45291 17.9134 4.52681L15.1667 6.12939ZM15.1667 7.28715V8.39908L18.1667 10.3991V5.53677L15.1667 7.28715Z" fill="#869198"/>
</g>
<defs>
<filter id="filter0_dd_4144_34" x="0" y="0" width="24" height="24" filterUnits="userSpaceOnUse" color-interpolation-filters="sRGB">
<feFlood flood-opacity="0" result="BackgroundImageFix"/>
<feColorMatrix in="SourceAlpha" type="matrix" values="0 0 0 0 0 0 0 0 0 0 0 0 0 0 0 0 0 0 127 0" result="hardAlpha"/>
<feOffset dy="4"/>
<feGaussianBlur stdDeviation="2"/>
<feComposite in2="hardAlpha" operator="out"/>
<feColorMatrix type="matrix" values="0 0 0 0 0 0 0 0 0 0 0 0 0 0 0 0 0 0 0.25 0"/>
<feBlend mode="normal" in2="BackgroundImageFix" result="effect1_dropShadow_4144_34"/>
<feColorMatrix in="SourceAlpha" type="matrix" values="0 0 0 0 0 0 0 0 0 0 0 0 0 0 0 0 0 0 127 0" result="hardAlpha"/>
<feOffset dy="4"/>
<feGaussianBlur stdDeviation="2"/>
<feComposite in2="hardAlpha" operator="out"/>
<feColorMatrix type="matrix" values="0 0 0 0 0 0 0 0 0 0 0 0 0 0 0 0 0 0 0.25 0"/>
<feBlend mode="normal" in2="effect1_dropShadow_4144_34" result="effect2_dropShadow_4144_34"/>
<feBlend mode="normal" in="SourceGraphic" in2="effect2_dropShadow_4144_34" result="shape"/>
</filter>
</defs>
</svg>
