<svg width="38" height="33" viewBox="0 0 38 33" fill="none" xmlns="http://www.w3.org/2000/svg">
<g filter="url(#filter0_dd_2143_1241)">
<path fill-rule="evenodd" clip-rule="evenodd" d="M8.33329 9C7.41282 9 6.66663 9.74619 6.66663 10.6667V21.3333C6.66663 22.2538 7.41282 23 8.33329 23H21.6666C22.5871 23 23.3333 22.2538 23.3333 21.3333V17.347C23.3332 17.3373 23.3332 17.3276 23.3333 17.3178V14.019C23.3331 14.0069 23.3331 13.9949 23.3333 13.9829V10.6667C23.3333 9.74619 22.5871 9 21.6666 9H8.33329ZM25.3333 12.2588V10.6667C25.3333 8.64162 23.6917 7 21.6666 7H8.33329C6.30825 7 4.66663 8.64162 4.66663 10.6667V21.3333C4.66663 23.3584 6.30825 25 8.33329 25H21.6666C23.6917 25 25.3333 23.3584 25.3333 21.3333V19.2019L30.7433 22.8085C30.9943 22.9755 31.2859 23.0713 31.587 23.0858C31.8881 23.1002 32.1875 23.0326 32.4533 22.8903C32.7191 22.748 32.9413 22.5363 33.0962 22.2777C33.2512 22.0191 33.3331 21.7233 33.3333 21.4219V10.4936C33.3333 10.4935 33.3333 10.4937 33.3333 10.4936C33.3333 10.2005 33.256 9.9122 33.1092 9.65845C32.9624 9.40462 32.7511 9.19404 32.4968 9.04796C32.2425 8.90188 31.9542 8.82548 31.661 8.82648C31.3677 8.82747 31.0799 8.90583 30.8266 9.05363L25.3333 12.2588ZM25.3333 14.5743V16.7982L31.3333 20.7982V11.0735L25.3333 14.5743Z" fill="white"/>
</g>
<defs>
<filter id="filter0_dd_2143_1241" x="-1" y="0" width="40" height="40" filterUnits="userSpaceOnUse" color-interpolation-filters="sRGB">
<feFlood flood-opacity="0" result="BackgroundImageFix"/>
<feColorMatrix in="SourceAlpha" type="matrix" values="0 0 0 0 0 0 0 0 0 0 0 0 0 0 0 0 0 0 127 0" result="hardAlpha"/>
<feOffset dy="4"/>
<feGaussianBlur stdDeviation="2"/>
<feComposite in2="hardAlpha" operator="out"/>
<feColorMatrix type="matrix" values="0 0 0 0 0 0 0 0 0 0 0 0 0 0 0 0 0 0 0.25 0"/>
<feBlend mode="normal" in2="BackgroundImageFix" result="effect1_dropShadow_2143_1241"/>
<feColorMatrix in="SourceAlpha" type="matrix" values="0 0 0 0 0 0 0 0 0 0 0 0 0 0 0 0 0 0 127 0" result="hardAlpha"/>
<feOffset dy="4"/>
<feGaussianBlur stdDeviation="2"/>
<feComposite in2="hardAlpha" operator="out"/>
<feColorMatrix type="matrix" values="0 0 0 0 0 0 0 0 0 0 0 0 0 0 0 0 0 0 0.25 0"/>
<feBlend mode="normal" in2="effect1_dropShadow_2143_1241" result="effect2_dropShadow_2143_1241"/>
<feBlend mode="normal" in="SourceGraphic" in2="effect2_dropShadow_2143_1241" result="shape"/>
</filter>
</defs>
</svg>
